<svg width="432" height="86" viewBox="0 0 432 86" fill="none" xmlns="http://www.w3.org/2000/svg">
<path d="M280.16 70.91C269.73 70.91 261.4 62.37 261.4 51.8C261.4 41.23 269.52 32.76 280.65 32.69C287.3 32.62 292.69 35.21 295.77 39.48L288.49 45.43C286.81 42.91 284.01 41.3 280.79 41.3C274.77 41.3 270.85 46.13 270.85 51.8C270.85 57.47 274.98 62.3 281 62.3C284.64 62.3 287.02 60.48 288.91 57.96L295.77 63.91C292.34 68.32 287.3 70.91 280.16 70.91ZM316.109 70.84C308.269 70.84 302.249 65.03 302.249 55.86V33.6H311.699V53.55C311.699 59.85 314.289 62.58 318.979 62.58C322.969 62.58 326.539 59.85 326.539 53.55V33.6H335.989V70H326.819V64.54C325.069 68.74 321.779 70.84 316.109 70.84ZM345.064 70V18.9H354.514V70H345.064ZM380.193 70.91C370.183 70.91 362.203 62.44 362.203 51.94C362.203 41.44 370.183 32.83 380.193 32.83C386.493 32.83 389.783 35.42 391.743 39.34V33.6H401.123V70H391.953V64.05C389.993 68.18 386.703 70.91 380.193 70.91ZM371.653 51.87C371.653 57.4 375.713 62.37 381.733 62.37C387.963 62.37 391.953 57.61 391.953 51.94C391.953 46.27 387.963 41.37 381.733 41.37C375.713 41.37 371.653 46.2 371.653 51.87ZM410.238 70V33.6H419.408V40.53C420.668 35.28 424.378 32.41 430.678 32.76V41.65H429.348C423.888 41.65 419.688 45.29 419.688 51.38V70H410.238Z" fill="white"/>
<rect x="7.5" y="13.5" width="235" height="65" rx="32.5" stroke="white" stroke-width="15"/>
<path d="M45 46L159.997 46.8456" stroke="white" stroke-width="30" stroke-linecap="round"/>
</svg>
