<svg width="476" height="92" viewBox="0 0 476 92" fill="none" xmlns="http://www.w3.org/2000/svg">
<rect x="7.5" y="19.5" width="235" height="65" rx="32.5" stroke="#0000FF" stroke-width="15"/>
<path d="M45 52L159.997 52.8456" stroke="#0000FF" stroke-width="30" stroke-linecap="round"/>
<path d="M280.79 70.91C277.103 70.91 273.79 70.07 270.85 68.39C267.91 66.6633 265.6 64.3533 263.92 61.46C262.24 58.52 261.4 55.3233 261.4 51.87C261.4 48.4167 262.24 45.22 263.92 42.28C265.6 39.34 267.91 37.03 270.85 35.35C273.79 33.6233 277.103 32.76 280.79 32.76C284.477 32.76 287.79 33.6233 290.73 35.35C293.67 37.03 295.98 39.34 297.66 42.28C299.34 45.22 300.18 48.4167 300.18 51.87C300.18 55.3233 299.34 58.52 297.66 61.46C295.98 64.3533 293.67 66.6633 290.73 68.39C287.79 70.07 284.477 70.91 280.79 70.91ZM270.85 51.87C270.85 53.7833 271.247 55.5333 272.04 57.12C272.88 58.7067 274.047 59.9667 275.54 60.9C277.08 61.8333 278.83 62.3 280.79 62.3C282.75 62.3 284.477 61.8333 285.97 60.9C287.51 59.9667 288.677 58.7067 289.47 57.12C290.31 55.5333 290.73 53.7833 290.73 51.87C290.73 49.9567 290.31 48.2067 289.47 46.62C288.63 45.0333 287.463 43.7733 285.97 42.84C284.477 41.86 282.75 41.37 280.79 41.37C278.83 41.37 277.103 41.86 275.61 42.84C274.117 43.7733 272.95 45.0333 272.11 46.62C271.27 48.2067 270.85 49.9567 270.85 51.87ZM324.881 70.91C321.474 70.91 318.324 70.07 315.431 68.39C312.584 66.6633 310.321 64.33 308.641 61.39C306.961 58.45 306.121 55.2533 306.121 51.8C306.121 48.3 306.961 45.1033 308.641 42.21C310.321 39.27 312.654 36.96 315.641 35.28C318.627 33.5533 321.964 32.69 325.651 32.69C328.871 32.69 331.764 33.2967 334.331 34.51C336.897 35.6767 338.951 37.3333 340.491 39.48L333.211 45.43C332.371 44.17 331.274 43.1667 329.921 42.42C328.567 41.6733 327.097 41.3 325.511 41.3C323.551 41.3 321.824 41.79 320.331 42.77C318.837 43.7033 317.671 44.9633 316.831 46.55C315.991 48.1367 315.571 49.8867 315.571 51.8C315.571 53.6667 315.991 55.4167 316.831 57.05C317.717 58.6367 318.931 59.92 320.471 60.9C322.011 61.8333 323.761 62.3 325.721 62.3C327.447 62.3 328.941 61.9267 330.201 61.18C331.461 60.4333 332.604 59.36 333.631 57.96L340.491 63.91C336.851 68.5767 331.647 70.91 324.881 70.91ZM360.83 70.84C358.216 70.84 355.86 70.2333 353.76 69.02C351.66 67.76 350.003 66.01 348.79 63.77C347.576 61.4833 346.97 58.8467 346.97 55.86V33.6H356.42V53.55C356.42 59.57 358.846 62.58 363.7 62.58C365.846 62.58 367.643 61.8333 369.09 60.34C370.536 58.8 371.26 56.5367 371.26 53.55V33.6H380.71V70H371.54V64.54C370.653 66.6867 369.346 68.2733 367.62 69.3C365.893 70.3267 363.63 70.84 360.83 70.84ZM389.784 18.9H399.234V70H389.784V18.9ZM424.913 70.91C421.647 70.91 418.637 70.07 415.883 68.39C413.13 66.6633 410.937 64.3533 409.303 61.46C407.717 58.5667 406.923 55.3933 406.923 51.94C406.923 48.4867 407.717 45.3133 409.303 42.42C410.937 39.48 413.13 37.1467 415.883 35.42C418.637 33.6933 421.647 32.83 424.913 32.83C427.9 32.83 430.303 33.39 432.123 34.51C433.99 35.63 435.437 37.24 436.463 39.34V33.6H445.843V70H436.673V64.05C435.6 66.2433 434.13 67.9467 432.263 69.16C430.443 70.3267 427.993 70.91 424.913 70.91ZM416.373 51.87C416.373 53.7367 416.793 55.4867 417.633 57.12C418.52 58.7067 419.71 59.99 421.203 60.97C422.743 61.9033 424.493 62.37 426.453 62.37C428.46 62.37 430.233 61.9033 431.773 60.97C433.36 60.0367 434.573 58.7767 435.413 57.19C436.253 55.6033 436.673 53.8533 436.673 51.94C436.673 50.0267 436.253 48.2767 435.413 46.69C434.573 45.0567 433.36 43.7733 431.773 42.84C430.233 41.86 428.46 41.37 426.453 41.37C424.493 41.37 422.743 41.86 421.203 42.84C419.663 43.7733 418.473 45.0333 417.633 46.62C416.793 48.2067 416.373 49.9567 416.373 51.87ZM454.958 33.6H464.128V40.53C464.782 37.87 466.042 35.8633 467.908 34.51C469.822 33.1567 472.318 32.5733 475.398 32.76V41.65H474.068C471.268 41.65 468.958 42.5367 467.138 44.31C465.318 46.0367 464.408 48.3933 464.408 51.38V70H454.958V33.6Z" fill="#0000FF"/>
</svg>
