<?xml version="1.0" encoding="UTF-8"?>
<svg id="Layer_1" data-name="Layer 1" xmlns="http://www.w3.org/2000/svg" viewBox="0 0 31.62 31.59">
  <defs>
    <style>
      .cls-1 {
        fill: #ecb22b;
      }

      .cls-1, .cls-2, .cls-3, .cls-4 {
        stroke-width: 0px;
      }

      .cls-2 {
        fill: #2eb77e;
      }

      .cls-3 {
        fill: #e11f5b;
      }

      .cls-4 {
        fill: #36c5ee;
      }
    </style>
  </defs>
  <g>
    <path class="cls-3" d="M6.67,19.97c0,1.84-1.49,3.32-3.32,3.32S.02,21.8.02,19.97s1.49-3.32,3.32-3.32h3.32v3.32h.01Z"/>
    <path class="cls-3" d="M8.32,19.97c0-1.84,1.49-3.32,3.32-3.32s3.32,1.49,3.32,3.32v8.3c0,1.84-1.49,3.32-3.32,3.32s-3.32-1.48-3.32-3.32v-8.3Z"/>
  </g>
  <g>
    <path class="cls-4" d="M11.65,6.63c-1.84,0-3.32-1.49-3.32-3.32s1.49-3.32,3.32-3.32,3.32,1.49,3.32,3.32v3.32h-3.32Z"/>
    <path class="cls-4" d="M11.65,8.32c1.84,0,3.32,1.49,3.32,3.32s-1.49,3.32-3.32,3.32H3.32c-1.84,0-3.32-1.49-3.32-3.32s1.49-3.32,3.32-3.32h8.33Z"/>
  </g>
  <g>
    <path class="cls-2" d="M24.95,11.64c0-1.84,1.49-3.32,3.32-3.32s3.32,1.49,3.32,3.32-1.49,3.32-3.32,3.32h-3.32v-3.32Z"/>
    <path class="cls-2" d="M23.3,11.64c0,1.84-1.49,3.32-3.32,3.32s-3.32-1.49-3.32-3.32V3.32c0-1.84,1.49-3.32,3.32-3.32s3.32,1.48,3.32,3.32v8.32Z"/>
  </g>
  <g>
    <path class="cls-1" d="M19.97,24.95c1.84,0,3.32,1.49,3.32,3.32s-1.49,3.32-3.32,3.32-3.32-1.49-3.32-3.32v-3.32h3.32Z"/>
    <path class="cls-1" d="M19.97,23.29c-1.84,0-3.32-1.49-3.32-3.32s1.49-3.32,3.32-3.32h8.33c1.84,0,3.32,1.49,3.32,3.32s-1.49,3.32-3.32,3.32h-8.33Z"/>
  </g>
</svg>